<?xml version="1.0" encoding="iso-8859-1"?>
<!-- Uploaded to: SVG Repo, www.svgrepo.com, Generator: SVG Repo Mixer Tools -->
<svg fill="#000000" height="800px" width="800px" version="1.1" id="Layer_1" xmlns="http://www.w3.org/2000/svg" xmlns:xlink="http://www.w3.org/1999/xlink" 
	 viewBox="0 0 330.001 330.001" xml:space="preserve">
<path id="XMLID_25_" d="M325.607,79.395l-75-75c-4.29-4.291-10.742-5.574-16.347-3.252c-5.605,2.322-9.26,7.792-9.26,13.858v60h-210
	c-8.284,0-15,6.716-15,15v225c0,8.284,6.716,15,15,15c8.284,0,15-6.716,15-15v-210h195v60c0,6.067,3.655,11.537,9.26,13.858
	c1.856,0.769,3.805,1.142,5.737,1.142c3.904,0,7.741-1.524,10.61-4.394l75-75C331.465,94.749,331.465,85.252,325.607,79.395z
	 M255.001,128.788V51.214l38.787,38.787L255.001,128.788z"/>
</svg>